# xmcd
#
# Track frame offsets: 
#        150
#        10514
#        22633
#        34599
#        46690
#        58821
#        76294
#        89604
#        102282
#        115585
#        127657
#        139706
#        152277
#        163723
#        177877
#        189615
#        203037
#        213153
#        226468
#        239672
#        253565
#        266557
#        279697
#        294190
#        307213
#        318830
#
# Disc length: 4404 seconds
#
# Revision: 2
# Processed by: cddbd v1.5.2PL0 Copyright (c) Steve Scherf et al.
# Submitted via: ExactAudioCopy v1.0b3
#
DISCID=5111321a
DTITLE=Howlin' Wolf - The Complete RPM and Chess Singles As and Bs 1951-62
DTITLE=CD1
DYEAR=2014
DGENRE=Blues
TTITLE0=Moanin' At Midnight
TTITLE1=How Many More Years
TTITLE2=Riding In The Moonlight
TTITLE3=Morning At Midnight
TTITLE4=Passing By Blues
TTITLE5=Crying At Daybreak
TTITLE6=My Baby Stole Off
TTITLE7=I Want Your Picture
TTITLE8=Wolf Is At Your Door
TTITLE9=Holwin' Wolf Boogie
TTITLE10=Getting Old And Grey
TTITLE11=Mr. Highway Man
TTITLE12=Saddle My Pony
TTITLE13=Worried All The Time
TTITLE14=Oh, Red!
TTITLE15=My Last Affair
TTITLE16=All Night Boogie
TTITLE17=I Love My Baby
TTITLE18=No Place To Go
TTITLE19=Rockin' Daddy
TTITLE20=Baby How Long
TTITLE21=Evil Is Going On
TTITLE22=I'll Be Around
TTITLE23=Forty-Four
TTITLE24=Who Will Be The Next
TTITLE25=I Have A Little Girl
EXTD=
EXTT0=
EXTT1=
EXTT2=
EXTT3=
EXTT4=
EXTT5=
EXTT6=
EXTT7=
EXTT8=
EXTT9=
EXTT10=
EXTT11=
EXTT12=
EXTT13=
EXTT14=
EXTT15=
EXTT16=
EXTT17=
EXTT18=
EXTT19=
EXTT20=
EXTT21=
EXTT22=
EXTT23=
EXTT24=
EXTT25=
PLAYORDER=
